<svg width="184" height="92" viewBox="0 0 184 92" fill="none" xmlns="http://www.w3.org/2000/svg">
<path d="M182.83 45.805C182.83 70.8277 162.607 91.11 137.665 91.11C112.723 91.11 92.5 70.8277 92.5 45.805C92.5 20.7823 112.723 0.5 137.665 0.5C162.607 0.5 182.83 20.7823 182.83 45.805Z" fill="#23BFA1" stroke="black"/>
<path d="M161.652 45.1412C161.652 58.0651 151.208 68.5394 138.327 68.5394C125.446 68.5394 115.002 58.0651 115.002 45.1412C115.002 32.2172 125.446 21.7429 138.327 21.7429C151.208 21.7429 161.652 32.2172 161.652 45.1412Z" fill="#192A32" stroke="black"/>
<rect y="68.981" width="97" height="32" rx="10" transform="rotate(-45 0 68.981)" fill="#F12F05"/>
<rect x="22.7358" width="97" height="32" rx="10" transform="rotate(45 22.7358 0)" fill="#F12F05"/>
</svg>
